# xmcd CD database file
# Copyright (C) 1993-1998 Ti Kan
#
# Track frame offsets:
#  182
#  49472
#  85790
#  142022
#  157777
#  181030
#  195515
#  232145
#
# Disc length: 3225 seconds
#
# Revision: 1
# Processed by: cddbd v1.4b41PL1 Copyright (c) Steve Scherf et al.
# Submitted via: CDWizzard Release:4.35
#
DISCID=630c9708
DTITLE=Jimi Hendrix - The Best of and the Rest of
DYEAR=1900
DGENRE=
TTITLE0=Red House
TTITLE1=Woke Up This Morning and Found Yourself Dead
TTITLE2=Bleeding Heart
TTITLE3=Morrison's Lament
TTITLE4=Tomorrow Never Knows
TTITLE5=Uranus Rock
TTITLE6=Outside Woman Blues
TTITLE7=Sunshine of Your Love
EXTD=
EXTT0=
EXTT1=
EXTT2=
EXTT3=
EXTT4=
EXTT5=
EXTT6=
EXTT7=
PLAYORDER=
